<svg xmlns="http://www.w3.org/2000/svg" xmlns:xlink="http://www.w3.org/1999/xlink"
    preserveAspectRatio="xMidYMid meet" version="1.0" viewBox="0.0 0.0 545.5 417.6"
    zoomAndPan="magnify" style="fill: rgb(0, 0, 0);" original_string_length="30922">
    <g id="__id83_sqvjmhqw7r">
        <path
            d="M545.505,187.289V411.7c0,3.142-2.556,5.698-5.698,5.698h-59.953h-58.604c-0.109,0.054-0.228,0.091-0.358,0.091 h-92.38c-0.256,0.069-0.519,0.118-0.797,0.118h-68.767c-0.335,0-0.656-0.082-0.958-0.209h-22.02c-3.143,0-5.699-2.556-5.699-5.698 v-21.598l-29.693-78.081c-0.485-1.275-0.312-2.706,0.462-3.828c0.774-1.123,2.051-1.794,3.414-1.794h25.817v-79.691 c-31.012-9.978-53.52-39.093-53.52-73.379c0-42.498,34.575-77.073,77.073-77.073s77.073,34.575,77.073,77.073 c0,9.976-1.926,19.504-5.391,28.262h153.615l-4.803-13.872c-0.102-0.296-0.027-0.624,0.195-0.845 c0.222-0.221,0.549-0.296,0.846-0.195l33.879,11.73c0.33,0.115,0.551,0.427,0.549,0.776c-0.002,0.349-0.225,0.66-0.557,0.771 l-4.876,1.635h35.453C542.948,181.591,545.505,184.147,545.505,187.289z M430.023,154.146c42.498,0,77.072-34.575,77.072-77.073 S472.521,0,430.023,0c-42.499,0-77.074,34.575-77.074,77.073S387.524,154.146,430.023,154.146z M154.146,230.961 c0-42.498-34.575-77.073-77.073-77.073S0,188.462,0,230.961c0,42.498,34.575,77.072,77.073,77.072S154.146,273.458,154.146,230.961z M193.84,351.223c-0.085-0.219-0.259-0.391-0.48-0.471c-0.22-0.085-0.464-0.062-0.671,0.048 c-0.196,0.105-19.746,10.519-32.507,4.569c-14.722-6.865-19.461-20.539-20.289-23.318l11.875-9.257 c0.266-0.207,0.377-0.557,0.279-0.881c-0.097-0.322-0.383-0.552-0.72-0.579l-36.871-2.828c-0.435-0.067-0.837,0.297-0.876,0.742 l-3.019,34.24c-0.029,0.327,0.14,0.64,0.43,0.793c0.292,0.153,0.645,0.118,0.898-0.086l8.942-7.256 c2.07,5.043,11.954,26.475,32.58,32.824c4.441,1.368,8.982,1.916,13.418,1.916c18.048,0,34.297-9.102,34.499-9.217 c0.352-0.201,0.503-0.629,0.357-1.005L193.84,351.223z"
            style="fill: rgb(255, 255, 255);" />
    </g>
    <g id="__id84_sqvjmhqw7r">
        <path
            d="M512.989,239.619c1.138,0.453,2.271,0.965,3.391,1.534c-3.681,7.693-10.494,10.328-13.181,11.089 c-5.189,1.463-10.307,0.661-11.654-1.833c-1.356-2.512-0.785-5.658,1.489-8.212c2.113-2.373,5.952-4.412,11.092-4.412 C506.757,237.784,509.732,238.318,512.989,239.619z M351.51,409.708c-0.119-0.184-0.224-0.391-0.326-0.602 c-0.608,0.711-1.371,1.2-2.227,1.307c-0.124,0.016-0.249,0.024-0.372,0.024c-1.088,0-2.094-0.605-2.799-1.698 c-1.163-1.803-1.537-4.857-1.176-9.611c0.014-0.18,0.035-0.346,0.051-0.521c-0.351,0.552-0.716,1.223-1.06,2.067 c-0.271,0.667-0.464,1.345-0.651,2.001c-0.37,1.304-0.72,2.534-1.618,3.595c-0.624,0.736-2.036,1.358-3.407,1.072 c-1.128-0.236-1.948-1.037-2.309-2.252c-0.769-2.59-0.748-6.785,1.618-10.79c0.069-0.116,0.154-0.215,0.224-0.329h-38.382 l-5.749,16.631c-0.07,0.201-0.038,0.415,0.085,0.589c0.024,0.034,0.061,0.05,0.09,0.078c0.07-0.019,0.138-0.043,0.215-0.043h59.641 C352.647,410.98,352.003,410.472,351.51,409.708z M393.369,402.52c-0.259,0.152-0.539,0.306-0.789,0.454 c-0.444,0.263-0.879,0.517-1.308,0.762c-5.99,3.588-17.522,6.685-28.625,7.491h30.637l0.211-4.844 C393.168,405.424,393.068,404.084,393.369,402.52z M263.63,393.973h-29.028c-1.009,0-1.958-0.381-2.698-1.016 c-0.514-0.441-0.929-1.001-1.178-1.657l-0.456-1.198V411.7c0,3.142,2.556,5.698,5.699,5.698h22.02 c-0.42-0.177-0.795-0.454-1.066-0.835c-0.174-0.243-0.282-0.518-0.358-0.799c-0.127-0.474-0.131-0.978,0.033-1.452L263.63,393.973z M545.505,187.289V411.7c0,3.142-2.556,5.698-5.698,5.698h-59.953c0.236,0,0.461-0.102,0.616-0.279 c0.155-0.179,0.225-0.415,0.193-0.649l-0.097-0.705l-0.604-4.4c15.523-1.276,24.922-4.94,27.152-15.17 c2.141-9.82,0.097-22.947,0.01-23.5c0-0.001-0.001-0.001-0.001-0.002c-2.514-21.002-8.467-48.408-15.599-58.984 c-8.454-12.534-27.522-19.243-29.952-20.057l-8.547-10.322v-8.449c1.671,0.777,3.525,1.224,5.486,1.224 c7.203,0,13.063-5.86,13.063-13.063c0-5.919-3.96-10.924-9.368-12.522c1.606-7.391,2.841-18.738-2.142-26.339 c-4.724-7.208-14.131-7.286-19.853-6.546c-3.072-0.479-6.177-0.522-8.969-0.347c-10.727,0.668-14.671,4.397-17.23,9.798 c-0.467,0.379-0.915,0.769-1.321,1.185c-0.008,0.007-0.017,0.012-0.025,0.019c-0.01,0.009-0.018,0.019-0.028,0.028 c-0.009,0.009-0.02,0.017-0.029,0.026c-0.006,0.007-0.011,0.014-0.018,0.02c-4.327,3.826-3.1,11.911-3.046,12.257 c0,0.001,0.001,0.001,0.001,0.001c0.394,3.091,1.011,6.094,1.555,8.743c0.152,0.742,0.299,1.457,0.435,2.145 c-4.123,2.199-6.938,6.54-6.938,11.53c0,2.328,0.619,4.511,1.691,6.406c-0.96,0.431-5.085,2.534-5.838,7.129 c-0.724,4.413,1.878,7.464,2.676,8.28c0.249,2.223,2.542,3.976,5.359,3.976c2.981,0,5.406-1.96,5.406-4.368 s-2.426-4.368-5.406-4.368c-2.232,0-4.15,1.098-4.975,2.659c-0.839-1.187-1.88-3.267-1.447-5.916 c0.683-4.17,4.991-5.947,5.035-5.965c0.035-0.014,0.059-0.042,0.091-0.06c1.346,1.808,3.14,3.26,5.226,4.179 c0.574,1.658,1.437,3.283,2.73,4.822c1.957,2.33,4.421,4.095,7.192,5.209v2.089l-6.739,10.294 c-2.39,0.37-14.906,2.845-25.296,15.199c-11.169,13.283-22.556,57.803-23.108,59.98l-1.618,5.321l-26.273-69.087 c-0.552-1.449-1.963-2.422-3.512-2.422h-2.875h-79.367h-21.644h-1.634v-79.691c0.542,0.174,1.087,0.338,1.634,0.501 c6.952,2.066,14.305,3.193,21.919,3.193c31.902,0,59.338-19.484,71.036-47.177c0.228-0.538,0.43-1.089,0.645-1.634h153.615 l0.566,1.634l6.361,18.372c0.113,0.328,0.423,0.549,0.769,0.55c0.002,0,0.002,0,0.003,0c0.346,0,0.656-0.219,0.771-0.545 l5.548-15.72c4.355,2.926,24.29,17.564,25.628,41.109c0.294,5.188-0.437,9.341-1.736,12.661c-1.136-0.573-2.284-1.091-3.436-1.553 c-10.404-4.149-18.234-0.972-21.782,3.01c-2.745,3.08-3.397,6.941-1.704,10.074c1.723,3.196,7.546,4.324,13.535,2.63 c5.422-1.535,10.95-5.365,14.124-11.928c12.712,6.999,23.443,20.78,21.056,33.249c-0.787,4.109-3.022,7.329-6.646,9.574 c-14.451,8.949-46.39,0.169-46.709,0.08c-0.437-0.123-0.886,0.134-1.007,0.566c-0.121,0.434,0.132,0.886,0.566,1.007 c0.874,0.244,14.668,4.039,28.327,4.039c7.249,0,14.459-1.069,19.68-4.302c4.029-2.496,6.517-6.081,7.393-10.658 c2.531-13.221-8.705-27.761-21.999-35.05c1.492-3.697,2.269-8.172,1.968-13.49c-1.332-23.443-20.438-38.282-25.84-42.024l4.922-1.65 l4.874-1.634h35.453C542.948,181.591,545.505,184.147,545.505,187.289z M343.381,234.423c0.332-0.11,0.555-0.42,0.557-0.771 c0.002-0.349-0.219-0.661-0.549-0.776l-33.879-11.73c-0.298-0.104-0.624-0.027-0.846,0.195c-0.222,0.222-0.297,0.549-0.195,0.846 l11.73,33.879c0.057,0.166,0.164,0.302,0.301,0.398c0.137,0.096,0.301,0.151,0.471,0.151c0.089,0,0.179-0.014,0.268-0.045 c0.057-0.02,0.099-0.058,0.149-0.088c0.026-0.016,0.052-0.026,0.076-0.045c0.118-0.091,0.204-0.207,0.258-0.342 c0.004-0.011,0.016-0.016,0.02-0.027l5.761-16.321L343.381,234.423z M359.372,282.046c-6.1-21.218-20.031-31.801-20.172-31.905 c-0.361-0.271-0.873-0.195-1.143,0.166c-0.27,0.361-0.196,0.873,0.166,1.143c0.136,0.102,13.637,10.383,19.578,31.047 c5.944,20.676-1.755,41.144-1.833,41.349c-0.161,0.421,0.048,0.894,0.469,1.056c0.097,0.037,0.196,0.054,0.294,0.054 c0.329,0,0.638-0.199,0.763-0.523C357.574,324.223,365.471,303.262,359.372,282.046z"
            style="fill: rgb(255, 223, 204);" />
    </g>
    <g id="__id85_sqvjmhqw7r">
        <path
            d="M480.565,415.764l0.097,0.705c0.032,0.235-0.038,0.471-0.193,0.649c-0.155,0.177-0.38,0.279-0.616,0.279 h-58.604c0.269-0.133,0.459-0.405,0.459-0.726v-0.908v-3.72c0-0.452-0.365-0.817-0.817-0.817h-25.955h-0.016l0.126-2.893 c0.008,0.005,0.016,0.011,0.024,0.016c0.316,0.179,0.652,0.322,1.024,0.385c0.19,0.032,0.381,0.048,0.573,0.048 c0.833,0,1.671-0.309,2.389-0.831c0.001,0.002,0.002,0.004,0.003,0.006c0.578,0.739,1.562,1.206,2.702,1.283 c0.113,0.008,0.227,0.011,0.34,0.011c1.024,0,1.984-0.327,2.706-0.885c0.025,0.034,0.033,0.072,0.059,0.105 c0.538,0.681,1.503,1.104,2.583,1.133c0.04,0.002,0.08,0.002,0.118,0.002c1.296,0,2.534-0.568,3.416-1.57 c0.294-0.332,0.646-0.764,1.052-1.259c0.658-0.804,1.442-1.76,2.307-2.71c5.995,6.906,24.615,8.116,39.625,8.114 c4.76,0,9.158-0.12,12.665-0.215l2.437-0.064c3.292-0.079,6.363-0.217,9.258-0.419c0.548-0.038,1.099-0.075,1.633-0.119 L480.565,415.764z M507.122,372.691c-0.073-0.445-0.501-0.748-0.934-0.678c-0.403,0.065-0.673,0.414-0.674,0.807h-30.837 l-0.03-0.156c-0.001-0.007-0.006-0.011-0.007-0.017c-0.001-0.006,0.001-0.012-0.001-0.018l-0.151-0.626l-8.03-33.265 c-0.107-0.439-0.544-0.701-0.986-0.603c-0.439,0.107-0.709,0.547-0.603,0.986l8.173,33.857l0.002,0.008l2.617,13.475l-0.758,0.068 l-47.544,4.266c-5.477-3.758-12.764-5.909-20.054-5.909c-0.008,0-0.016,0-0.022,0c-3.865,0.001-7.76,1.256-11.265,3.195 c-0.03,0.017-0.061,0.033-0.092,0.05l0.666-15.292l1.474-33.876c0.019-0.45-0.33-0.831-0.782-0.852 c-0.447,0.003-0.833,0.332-0.852,0.782l-1.441,33.108l-0.071,1.634h-26.338h-0.605c-0.252,0-0.49-0.116-0.645-0.316 c-0.155-0.198-0.209-0.458-0.147-0.702c0.002-0.006,0.006-0.025,0.008-0.032c0.551-2.177,11.938-46.697,23.108-59.98 c10.39-12.354,22.905-14.829,25.296-15.199l6.739-10.294l0.134-0.205c0.139-0.214,0.37-0.349,0.624-0.369 c0.249-0.024,0.503,0.083,0.67,0.273l0.206,0.232l7.02,7.916l20.401-11.811l0.407-0.236c0.346-0.201,0.785-0.123,1.039,0.185 l0.188,0.227l8.547,10.322c2.43,0.814,21.498,7.522,29.952,20.057C498.655,324.283,504.608,351.689,507.122,372.691z M461.774,293.901c-0.252-0.38-0.761-0.476-1.133-0.23l-0.757,0.503l-22.384,14.858l-5.635-12.688l-0.298-0.671 c-0.113-0.254-0.348-0.432-0.622-0.476c-0.271-0.041-0.552,0.059-0.737,0.266l-0.479,0.542l-9.542,10.793l-3.199-8.531l-0.145-0.388 c-0.158-0.421-0.632-0.638-1.052-0.477c-0.423,0.158-0.637,0.629-0.477,1.052l0.234,0.625l3.586,9.565 c0.101,0.268,0.334,0.464,0.616,0.515c0.282,0.057,0.57-0.046,0.761-0.262l10.08-11.4l5.808,13.082 c0.097,0.22,0.287,0.385,0.519,0.453c0.075,0.021,0.152,0.032,0.228,0.032c0.16,0,0.316-0.046,0.452-0.136l23.613-15.674 l0.334-0.221C461.92,294.783,462.022,294.276,461.774,293.901z M403.509,282.757c-0.278,0.525-0.433,1.102-0.433,1.709 c0,0.134,0.034,0.26,0.049,0.391c0.249,2.223,2.542,3.976,5.359,3.976c2.981,0,5.406-1.96,5.406-4.368s-2.426-4.368-5.406-4.368 C406.252,280.098,404.334,281.196,403.509,282.757z M352.949,77.073C352.949,34.575,387.524,0,430.023,0 c42.498,0,77.072,34.575,77.072,77.073s-34.575,77.073-77.072,77.073C387.524,154.146,352.949,119.571,352.949,77.073z M394.904,123.202c0,0.452,0.365,0.817,0.817,0.817h68.604c0.452,0,0.817-0.365,0.817-0.817V93.506 c0-11.934-9.708-21.643-21.643-21.643h-4.154v-0.179c7.929-3.455,13.023-11.195,13.023-19.872c0-11.958-9.728-21.686-21.686-21.686 c-11.957,0-21.684,9.728-21.684,21.686c0,8.154,4.47,15.475,11.703,19.229v0.822h-4.154c-11.934,0-21.643,9.709-21.643,21.643 V123.202z M324.86,183.225c-11.698,27.693-39.134,47.177-71.036,47.177c-7.614,0-14.967-1.127-21.919-3.193 c-0.547-0.163-1.092-0.327-1.634-0.501c-31.012-9.978-53.52-39.093-53.52-73.379c0-42.498,34.575-77.073,77.073-77.073 s77.073,34.575,77.073,77.073c0,9.976-1.926,19.504-5.391,28.262C325.29,182.136,325.087,182.687,324.86,183.225z M288.943,169.762 c0-11.934-9.71-21.643-21.644-21.643h-4.154v-0.179c7.93-3.455,13.024-11.195,13.024-19.873c0-11.958-9.728-21.685-21.686-21.685 c-11.958,0-21.685,9.728-21.685,21.685c0,8.154,4.471,15.475,11.703,19.229v0.823h-4.154c-11.934,0-21.644,9.709-21.644,21.643 v29.697c0,0.452,0.365,0.817,0.817,0.817h68.605c0.452,0,0.817-0.365,0.817-0.817V169.762z M77.073,308.033 C34.575,308.033,0,273.458,0,230.961c0-42.498,34.575-77.073,77.073-77.073s77.073,34.575,77.073,77.073 C154.146,273.458,119.571,308.033,77.073,308.033z M112.192,247.393c0-11.934-9.709-21.643-21.643-21.643h-4.154v-0.179 c7.93-3.455,13.024-11.196,13.024-19.872c0-11.958-9.728-21.686-21.686-21.686s-21.685,9.728-21.685,21.686 c0,8.153,4.471,15.476,11.703,19.229v0.822h-4.154c-11.934,0-21.644,9.708-21.644,21.643v29.697c0,0.452,0.365,0.817,0.817,0.817 h68.604c0.452,0,0.817-0.365,0.817-0.817V247.393z M193.84,351.223c-0.085-0.219-0.259-0.391-0.48-0.471 c-0.22-0.085-0.464-0.062-0.671,0.048c-0.196,0.105-19.746,10.519-32.507,4.569c-14.722-6.865-19.461-20.539-20.289-23.318 l11.875-9.257c0.266-0.207,0.377-0.557,0.279-0.881c-0.097-0.322-0.383-0.552-0.72-0.579l-36.871-2.828 c-0.435-0.067-0.837,0.297-0.876,0.742l-3.019,34.24c-0.029,0.327,0.14,0.64,0.43,0.793c0.292,0.153,0.645,0.118,0.898-0.086 l8.942-7.256c2.07,5.043,11.954,26.475,32.58,32.824c4.441,1.368,8.982,1.916,13.418,1.916c18.048,0,34.297-9.102,34.499-9.217 c0.352-0.201,0.503-0.629,0.357-1.005L193.84,351.223z M326.092,239.361c-0.065-0.195-0.045-0.394,0.028-0.57 c0.032-0.077,0.078-0.143,0.132-0.207c0.021-0.025,0.034-0.053,0.057-0.075c0.083-0.079,0.181-0.144,0.297-0.182l13.983-4.69 l-30.024-10.395l11.18,32.288c0.066,0.193,0.048,0.39-0.022,0.566c0.004-0.011,0.016-0.016,0.02-0.027l5.761-16.321l15.878-5.325 l-16.256,5.451C326.698,240.028,326.234,239.788,326.092,239.361z"
            style="fill: rgb(255, 145, 77);" />
    </g>
    <g id="__id86_sqvjmhqw7r">
        <path
            d="M460.063,224.18c-4.724-7.208-14.131-7.286-19.853-6.546c-3.072-0.479-6.177-0.522-8.969-0.347 c-10.727,0.668-14.671,4.397-17.23,9.798c-0.467,0.379-0.915,0.769-1.321,1.185c-0.008,0.007-0.017,0.012-0.025,0.019 c-0.01,0.009-0.018,0.019-0.028,0.028c-0.009,0.009-0.02,0.017-0.029,0.026c-0.006,0.007-0.011,0.014-0.018,0.02 c-4.327,3.826-3.1,11.911-3.046,12.257c0,0.001,0.001,0.001,0.001,0.001c0.394,3.091,1.011,6.094,1.555,8.743 c0.152,0.742,0.299,1.457,0.435,2.145c-4.123,2.199-6.938,6.54-6.938,11.53c0,2.328,0.619,4.511,1.691,6.406 c-0.96,0.431-5.085,2.534-5.838,7.129c-0.724,4.413,1.878,7.464,2.676,8.28c-0.015-0.131-0.049-0.257-0.049-0.391 c0-0.606,0.155-1.183,0.433-1.709c-0.839-1.187-1.88-3.267-1.447-5.916c0.683-4.17,4.991-5.947,5.035-5.965 c0.035-0.014,0.059-0.042,0.091-0.06c1.346,1.808,3.14,3.26,5.226,4.179c0.574,1.658,1.437,3.283,2.73,4.822 c1.957,2.33,4.421,4.095,7.192,5.209v2.089l0.134-0.205c0.139-0.214,0.37-0.349,0.624-0.369c0.249-0.024,0.503,0.083,0.67,0.273 l0.206,0.232v-1.455c1.261,0.375,2.571,0.631,3.921,0.738c0.493,0.038,1.016,0.062,1.569,0.062c4.117,0,9.807-1.272,15.83-6.482 c0.341-0.295,0.378-0.811,0.083-1.152c-0.295-0.343-0.811-0.377-1.152-0.083c-6.402,5.537-12.338,6.341-16.198,6.025 c-4.591-0.365-8.719-2.473-11.626-5.933c-2.604-3.1-3.324-6.582-3.342-10.045c-0.012-2.164,0.248-4.321,0.499-6.372 c0.174-1.424,0.334-2.786,0.39-4.053c0.024-0.547,0.034-1.082,0.009-1.588c-0.104-2.089-0.635-4.676-1.249-7.672 c-0.527-2.562-1.118-5.461-1.505-8.422c0.675-1.337,5.75-9.792,24.6-6.51c0.129,2.873,1.386,13.755,12.363,21.001 c-1.692,2.202-2.71,4.949-2.71,7.935c0,4.577,2.37,8.604,5.943,10.937v9.173l0.407-0.236c0.346-0.201,0.785-0.123,1.039,0.185 l0.188,0.227v-8.449c1.671,0.777,3.525,1.224,5.486,1.224c7.203,0,13.063-5.86,13.063-13.063c0-5.919-3.96-10.924-9.368-12.522 C463.811,243.128,465.046,231.781,460.063,224.18z M412.319,256.791c0.077,1.537-0.15,3.394-0.389,5.362 c-0.399,3.264-0.848,7.011-0.102,10.699c-3.345-1.996-5.597-5.641-5.597-9.811c0-4.181,2.264-7.835,5.624-9.827 C412.092,254.545,412.266,255.751,412.319,256.791z M416.994,225.14c2.431-3.497,6.269-5.719,14.349-6.222 c7.502-0.469,17.432,0.605,22.01,8.37c3.796,6.441,4.272,19.442,4.332,22.733c-1.645,0.104-3.206,0.509-4.631,1.168 c0.029-3.719-0.278-13.889-4.107-20.852c-0.085-0.161-0.174-0.313-0.262-0.467c-0.037-0.063-0.073-0.126-0.111-0.188 c-0.531-0.907-1.099-1.71-1.711-2.367c-0.046-0.049-0.1-0.089-0.146-0.137c-0.342-0.372-0.716-0.729-1.134-1.067 c-2.699-2.261-6.302-3.515-11.153-3.947c-0.218-0.022-0.439-0.041-0.66-0.059c-0.407-0.029-0.821-0.054-1.246-0.073 c-0.282-0.013-0.554-0.042-0.84-0.049c-0.208-0.004-0.409,0.012-0.616,0.011c-0.271-0.004-0.519-0.021-0.796-0.021 c-0.509,0.002-0.999,0.038-1.495,0.062c-0.009,0-0.019,0.001-0.028,0.001c-2.414,0.119-4.683,0.501-6.821,1.149 C420.142,223.689,418.487,224.343,416.994,225.14z M469.939,263.041c0,6.302-5.127,11.429-11.429,11.429 s-11.429-5.127-11.429-11.429c0-2.892,1.089-5.529,2.867-7.544l2.706-2.252c1.715-1.029,3.714-1.633,5.856-1.633 C464.812,251.613,469.939,256.74,469.939,263.041z M426.613,277.524c0.501,0,1.031-0.059,1.591-0.187 c4.717-1.079,5.74-5.224,5.62-7.267c-0.016-0.279-0.174-0.531-0.42-0.667c-0.246-0.137-0.546-0.136-0.788-0.002 c-3.613,1.983-11.639,1.789-11.716,1.789c-0.26-0.002-0.517,0.115-0.677,0.327c-0.158,0.212-0.204,0.488-0.123,0.74 C420.736,274.229,422.852,277.524,426.613,277.524z M432.091,271.424c-0.266,1.42-1.181,3.619-4.251,4.321 c-3.185,0.736-4.939-1.497-5.706-2.915C424.338,272.805,428.9,272.603,432.091,271.424z M418.351,252.361l0.156,3.365 c0.022,0.452-0.327,0.833-0.777,0.854c-0.013,0.002-0.026,0.002-0.038,0.002c-0.434,0-0.796-0.341-0.815-0.779l-0.156-3.365 c-0.022-0.452,0.327-0.833,0.777-0.854C417.95,251.523,418.331,251.911,418.351,252.361z M430.465,254.967l-0.156-3.365 c-0.022-0.452,0.327-0.833,0.777-0.854c0.436-0.062,0.835,0.327,0.854,0.777l0.156,3.365c0.022,0.452-0.327,0.833-0.777,0.854 c-0.013,0.002-0.026,0.002-0.038,0.002C430.847,255.745,430.484,255.404,430.465,254.967z M420.391,261.851 c2.253-5.563,1.768-8.596,1.763-8.627c-0.077-0.444,0.219-0.866,0.661-0.946c0.444-0.073,0.866,0.212,0.946,0.654 c0.027,0.139,0.6,3.469-1.854,9.531c-0.274,0.677-0.282,1.208-0.022,1.577c0.428,0.603,1.605,0.946,3.089,0.873 c0.424-0.01,0.833,0.332,0.852,0.782c0.019,0.45-0.33,0.831-0.782,0.852c-0.144,0.005-0.286,0.008-0.426,0.008 c-1.886,0-3.356-0.563-4.068-1.573C420.138,264.396,419.774,263.378,420.391,261.851z M507.122,372.691 c-0.073-0.445-0.501-0.748-0.934-0.678c-0.403,0.065-0.673,0.414-0.674,0.807c0,0.043-0.012,0.084-0.005,0.128 c0.022,0.134,2.086,13.374,0.01,22.897c-2.496,11.448-14.748,13.9-36.485,14.422l-2.443,0.064 c-13.271,0.364-43.955,1.195-51.122-7.431c1.183-1.167,2.467-2.218,3.773-2.809c0.412-0.185,0.594-0.669,0.407-1.08 c-0.185-0.412-0.673-0.592-1.08-0.407c-0.018,0.008-0.036,0.02-0.054,0.029c-3.084,1.42-5.885,4.839-7.743,7.109 c-0.389,0.477-0.729,0.894-1.012,1.214c-0.806,0.913-1.789,1.048-2.264,1.013c-0.664-0.018-1.154-0.27-1.345-0.511 c-0.854-1.082-0.239-3.153,1.824-6.155c2.154-3.136,7.816-6.711,8.204-6.955c0.012-0.007,0.035-0.022,0.037-0.023 c0.385-0.236,0.503-0.74,0.265-1.123c-0.235-0.383-0.739-0.506-1.123-0.265c-0.046,0.028-0.285,0.177-0.649,0.415 c-1.669,1.091-6.097,4.142-8.079,7.026c-1.272,1.85-2.717,4.333-2.431,6.435c-0.076,0.037-0.152,0.077-0.217,0.14 c-0.474,0.461-1.272,0.712-2.108,0.657c-0.665-0.046-1.237-0.294-1.526-0.662c-0.627-0.799-0.613-3.377,2.094-6.882 c2.686-3.479,7.478-7.565,7.527-7.607c0.091-0.078,0.158-0.173,0.206-0.275c0.132-0.281,0.101-0.625-0.113-0.877 c-0.29-0.341-0.804-0.385-1.152-0.093c-0.046,0.039-0.335,0.286-0.774,0.674c-1.497,1.325-4.83,4.383-6.987,7.178 c-2.266,2.935-2.963,5.5-2.714,7.27c-0.582,0.582-1.371,0.908-2.067,0.785c-0.614-0.104-1.069-0.528-1.316-1.23 c-0.48-1.366-0.357-4.029,1.572-7.042c2.215-3.456,5.989-6.555,7.213-7.512c0.243-0.19,0.395-0.304,0.404-0.31 c0.364-0.266,0.442-0.779,0.174-1.141c-0.268-0.365-0.78-0.44-1.141-0.176c-0.212,0.156-5.204,3.854-8.025,8.258 c-0.499,0.78-0.879,1.539-1.184,2.274c-0.805,0.439-1.584,0.891-2.316,1.324c-1.495,0.886-2.786,1.648-3.919,2.006 c-0.619,0.188-1.581,0.048-2.062-0.523c-0.522-0.619-0.417-1.723,0.298-3.108c3.34-6.479,12.662-13.417,21.218-13.42 c0.008,0,0.014,0,0.022,0c7.071,0,14.127,2.108,19.363,5.785c0.156,0.112,0.34,0.16,0.543,0.145l49.498-4.443 c0.23-0.021,0.44-0.137,0.579-0.322c0.139-0.185,0.193-0.42,0.15-0.648l-2.761-14.218l-0.03-0.156 c-0.001-0.007-0.006-0.011-0.007-0.017c-0.001-0.006,0.001-0.012-0.001-0.018l-0.151-0.626l-8.03-33.265 c-0.107-0.439-0.544-0.701-0.986-0.603c-0.439,0.107-0.709,0.547-0.603,0.986l8.173,33.857l0.002,0.008l2.617,13.475l-0.758,0.068 l-47.544,4.266c-5.477-3.758-12.764-5.909-20.054-5.909c-0.008,0-0.016,0-0.022,0c-3.865,0.001-7.76,1.256-11.265,3.195 c-0.03,0.017-0.061,0.033-0.092,0.05l0.666-15.292l1.474-33.876c0.019-0.45-0.33-0.831-0.782-0.852 c-0.447,0.003-0.833,0.332-0.852,0.782l-1.441,33.108l-0.071,1.634l-0.675,15.502c-4.272,2.753-7.787,6.472-9.633,10.052 c-1.328,2.576-0.785,4.093-0.096,4.912c0.218,0.259,0.48,0.456,0.755,0.627c-5.717,2.221-13.721,4.204-22.186,4.85 c1.077-1.643,1.973-4.907,2.472-7.011c0.118,0.199,0.241,0.405,0.364,0.616c0.79,1.342,1.607,2.73,2.548,3.512 c1.074,0.89,2.791,1.253,4.174,0.879c1.144-0.308,1.993-1.077,2.394-2.167c0.801-2.183-1.983-8.122-5.325-12.296 c0.095-0.1,0.195-0.195,0.275-0.31c0.506-0.731,0.618-1.664,0.303-2.496l-3.766-9.902l2.057-6.767h-0.605 c-0.252,0-0.49-0.116-0.645-0.316c-0.155-0.198-0.209-0.458-0.147-0.702c0.002-0.006,0.006-0.025,0.008-0.032l-1.618,5.321 l-26.273-69.087c-0.552-1.449-1.963-2.422-3.512-2.422h-2.875h-79.367h-21.644h-1.634h-25.817c-1.364,0-2.64,0.67-3.414,1.794 c-0.774,1.122-0.947,2.553-0.462,3.828l29.693,78.081l0.456,1.198c0.25,0.656,0.665,1.216,1.178,1.657 c0.739,0.635,1.689,1.016,2.698,1.016h29.028l-7.031,20.339c-0.164,0.474-0.161,0.978-0.033,1.452 c0.076,0.282,0.185,0.556,0.358,0.799c0.271,0.381,0.646,0.658,1.066,0.835c0.301,0.127,0.623,0.209,0.958,0.209h68.767 c0.277,0,0.541-0.049,0.797-0.118h92.38c0.13,0,0.249-0.037,0.358-0.091c0.269-0.133,0.459-0.405,0.459-0.726v-0.908v-3.72 c0-0.452-0.365-0.817-0.817-0.817h-25.955h-0.016l0.126-2.893c0.008,0.005,0.016,0.011,0.024,0.016 c0.316,0.179,0.652,0.322,1.024,0.385c0.19,0.032,0.381,0.048,0.573,0.048c0.833,0,1.671-0.309,2.389-0.831 c0.001,0.002,0.002,0.004,0.003,0.006c0.578,0.739,1.562,1.206,2.702,1.283c0.113,0.008,0.227,0.011,0.34,0.011 c1.024,0,1.984-0.327,2.706-0.885c0.025,0.034,0.033,0.072,0.059,0.105c0.538,0.681,1.503,1.104,2.583,1.133 c0.04,0.002,0.08,0.002,0.118,0.002c1.296,0,2.534-0.568,3.416-1.57c0.294-0.332,0.646-0.764,1.052-1.259 c0.658-0.804,1.442-1.76,2.307-2.71c5.995,6.906,24.615,8.116,39.625,8.114c4.76,0,9.158-0.12,12.665-0.215l2.437-0.064 c3.292-0.079,6.363-0.217,9.258-0.419c0.548-0.038,1.099-0.075,1.633-0.119c15.523-1.276,24.922-4.94,27.152-15.17 c2.141-9.82,0.097-22.947,0.01-23.5C507.123,372.693,507.122,372.692,507.122,372.691z M293.717,411.227 c-0.076,0-0.145,0.024-0.215,0.043c-0.029-0.028-0.066-0.045-0.09-0.078c-0.123-0.174-0.155-0.388-0.085-0.589l5.749-16.631h38.382 c-0.071,0.114-0.156,0.213-0.224,0.329c-2.366,4.005-2.387,8.2-1.618,10.79c0.361,1.214,1.181,2.015,2.309,2.252 c1.371,0.286,2.783-0.337,3.407-1.072c0.898-1.061,1.248-2.291,1.618-3.595c0.187-0.656,0.38-1.334,0.651-2.001 c0.343-0.844,0.709-1.515,1.06-2.067c-0.017,0.175-0.038,0.341-0.051,0.521c-0.361,4.754,0.013,7.808,1.176,9.611 c0.705,1.093,1.711,1.698,2.799,1.698c0.123,0,0.247-0.008,0.372-0.024c0.855-0.107,1.618-0.596,2.227-1.307 c0.102,0.211,0.208,0.417,0.326,0.602c0.493,0.764,1.137,1.272,1.849,1.519H293.717z M356.247,408.052 c-0.362,0.948-1.039,1.617-1.769,1.708c-0.769,0.085-1.285-0.458-1.596-0.94c-0.945-1.465-1.246-4.278-0.919-8.599 c0.202-2.661,0.979-5.36,1.253-6.249h4.644C356.321,398.271,355.942,405.349,356.247,408.052z M350.332,400.097 c-0.223,2.948-0.162,5.239,0.192,6.986c-0.362,0.948-1.039,1.618-1.77,1.709c-0.745,0.085-1.285-0.458-1.596-0.94 c-0.946-1.466-1.246-4.28-0.918-8.601c0.192-2.55,0.737-4.546,0.96-5.279h4.309C351.149,395.21,350.519,397.635,350.332,400.097z M345.122,395.541c-0.583,0.484-1.934,1.814-3.033,4.518c-0.306,0.75-0.511,1.471-0.71,2.17c-0.335,1.178-0.624,2.194-1.294,2.986 c-0.273,0.324-1.103,0.683-1.824,0.53c-0.535-0.112-0.887-0.479-1.077-1.119c-0.672-2.26-0.641-5.941,1.459-9.493 c0.242-0.409,0.517-0.784,0.792-1.16h6.065C345.388,394.374,345.256,394.9,345.122,395.541z M373.502,404.847 c-0.217,0.592-0.649,0.98-1.283,1.151c-0.873,0.239-2.038-0.005-2.706-0.559c-0.723-0.598-1.498-1.92-2.183-3.083 c-0.44-0.749-0.86-1.453-1.276-2.01c0.516-2.086,1.028-4.757,1.051-4.877c0.085-0.444-0.207-0.871-0.649-0.956 c-0.448-0.08-0.871,0.206-0.956,0.649c-0.006,0.032-0.59,3.093-1.125,5.165c-0.003,0.01,0.001,0.02-0.002,0.031 c-0.001,0.006-0.007,0.01-0.008,0.016c-0.557,2.81-1.84,7.65-2.92,8.668c-0.661,0.624-1.621,0.862-2.382,0.595 c-0.455-0.16-1.028-0.562-1.171-1.573c-0.351-2.485,0.078-9.866,1.615-13.846c0.031-0.081,0.037-0.164,0.042-0.246h6.048h2.165 c0.177,0,0.348-0.03,0.518-0.063C371.543,397.891,373.98,403.547,373.502,404.847z M335.791,308.033 c0.876,0,1.672,0.551,1.983,1.369l30.988,81.486c0.128,0.334,0.083,0.694-0.12,0.988c-0.203,0.294-0.523,0.463-0.881,0.463h-1.601 l-32.059-84.306H335.791z M234.602,392.339c-1.036,0-1.98-0.651-2.349-1.62l-30.148-79.279c-0.298-0.784-0.196-1.629,0.28-2.32 c0.476-0.691,1.23-1.087,2.069-1.087h50.279h77.619l32.06,84.306h-64.77l7.796-22.551c0.086-0.249,0.046-0.525-0.107-0.74 s-0.401-0.343-0.665-0.343h-33.718c-0.349,0-0.658,0.22-0.772,0.551l-7.98,23.084H234.602z M327.715,415.973h-68.767 c-0.278,0-0.531-0.131-0.693-0.357c-0.161-0.227-0.202-0.507-0.111-0.771l15.385-44.507h31.989l-13.734,39.732 c-0.241,0.696-0.129,1.47,0.298,2.07c0.428,0.6,1.122,0.957,1.857,0.957h33.775c0.793,0,1.438,0.645,1.438,1.438 S328.508,415.973,327.715,415.973z M420.074,412.861v2.994h-89.598c0.193-0.402,0.31-0.846,0.31-1.32 c0-0.618-0.187-1.192-0.503-1.674H420.074z M362.647,411.227c11.103-0.806,22.635-3.903,28.625-7.491 c0.429-0.245,0.864-0.499,1.308-0.762c0.25-0.148,0.53-0.302,0.789-0.454c-0.301,1.564-0.201,2.904,0.125,3.863l-0.211,4.844 H362.647z M461.774,293.901c0.249,0.375,0.147,0.882-0.23,1.133l-0.334,0.221l-23.613,15.674c-0.136,0.089-0.292,0.136-0.452,0.136 c-0.077,0-0.153-0.011-0.228-0.032c-0.231-0.069-0.421-0.233-0.519-0.453l-5.808-13.082l-10.08,11.4 c-0.191,0.215-0.479,0.319-0.761,0.262c-0.282-0.051-0.515-0.247-0.616-0.515l-3.586-9.565l-0.234-0.625 c-0.16-0.423,0.054-0.894,0.477-1.052c0.42-0.161,0.894,0.056,1.052,0.477l0.145,0.388l3.199,8.531l9.542-10.793l0.479-0.542 c0.185-0.207,0.466-0.308,0.737-0.266c0.274,0.043,0.509,0.222,0.622,0.476l0.298,0.671l5.635,12.688l22.384-14.858l0.757-0.503 C461.012,293.426,461.521,293.521,461.774,293.901z M296.306,340.413h-35.248c-0.452,0-0.817-0.365-0.817-0.817 c0-0.452,0.365-0.817,0.817-0.817h35.248c0.452,0,0.817,0.365,0.817,0.817C297.123,340.048,296.757,340.413,296.306,340.413z M298.537,346.279h-35.248c-0.452,0-0.817-0.365-0.817-0.817c0-0.452,0.365-0.817,0.817-0.817h35.248 c0.452,0,0.817,0.365,0.817,0.817C299.354,345.914,298.988,346.279,298.537,346.279z M300.767,352.145h-35.248 c-0.452,0-0.817-0.365-0.817-0.817c0-0.452,0.365-0.817,0.817-0.817h35.248c0.452,0,0.817,0.365,0.817,0.817 C301.584,351.78,301.219,352.145,300.767,352.145z M302.998,358.013H267.75c-0.452,0-0.817-0.365-0.817-0.817 s0.365-0.817,0.817-0.817h35.248c0.452,0,0.817,0.365,0.817,0.817S303.45,358.013,302.998,358.013z M415.314,249.795 c-0.163,0.196-0.396,0.297-0.63,0.297c-0.184,0-0.369-0.061-0.52-0.187c-0.348-0.289-0.397-0.803-0.11-1.151 c2.555-3.088,6.204-1.937,6.359-1.889c0.429,0.14,0.664,0.603,0.523,1.031c-0.14,0.428-0.603,0.664-1.028,0.523 C419.791,248.384,417.147,247.579,415.314,249.795z M434.424,248.113c-3.211-2.175-6.078-0.112-6.199-0.021 c-0.362,0.265-0.871,0.193-1.143-0.169c-0.268-0.361-0.196-0.87,0.163-1.139c1.334-1.001,4.741-2.299,8.095-0.024 c0.373,0.254,0.471,0.761,0.219,1.135c-0.158,0.233-0.415,0.359-0.677,0.359C434.724,248.254,434.565,248.207,434.424,248.113z M395.721,124.019h68.604c0.452,0,0.817-0.365,0.817-0.817V93.506c0-11.934-9.708-21.643-21.643-21.643h-4.154v-0.179 c7.929-3.455,13.023-11.195,13.023-19.872c0-11.958-9.728-21.686-21.686-21.686c-11.957,0-21.684,9.728-21.684,21.686 c0,8.154,4.47,15.475,11.703,19.229v0.822h-4.154c-11.934,0-21.643,9.709-21.643,21.643v29.697 C394.904,123.654,395.27,124.019,395.721,124.019z M396.538,93.506c0-11.033,8.976-20.009,20.009-20.009h4.971 c0.452,0,0.817-0.365,0.817-0.817v-2.141c0-0.312-0.177-0.596-0.458-0.733c-6.937-3.403-11.245-10.298-11.245-17.993 c0-11.057,8.995-20.052,20.05-20.052c11.057,0,20.052,8.995,20.052,20.052c0,8.194-4.912,15.484-12.514,18.573 c-0.308,0.125-0.509,0.424-0.509,0.757v1.538c0,0.452,0.365,0.817,0.817,0.817h4.971c11.033,0,20.009,8.976,20.009,20.009v28.88 h-66.97V93.506z M219.521,200.275h68.605c0.452,0,0.817-0.365,0.817-0.817v-29.697c0-11.934-9.71-21.643-21.644-21.643h-4.154 v-0.179c7.93-3.455,13.024-11.195,13.024-19.873c0-11.958-9.728-21.685-21.686-21.685c-11.958,0-21.685,9.728-21.685,21.685 c0,8.154,4.471,15.475,11.703,19.229v0.823h-4.154c-11.934,0-21.644,9.709-21.644,21.643v29.697 C218.704,199.91,219.069,200.275,219.521,200.275z M220.338,169.762c0-11.033,8.976-20.009,20.01-20.009h4.971 c0.452,0,0.817-0.365,0.817-0.817v-2.142c0-0.312-0.177-0.596-0.457-0.733c-6.937-3.402-11.246-10.297-11.246-17.993 c0-11.056,8.995-20.051,20.051-20.051c11.057,0,20.052,8.995,20.052,20.051c0,8.194-4.912,15.485-12.514,18.574 c-0.308,0.125-0.51,0.424-0.51,0.757v1.538c0,0.452,0.365,0.817,0.817,0.817h4.971c11.034,0,20.01,8.976,20.01,20.009v28.88h-66.971 V169.762z M90.549,225.751h-4.154v-0.179c7.93-3.455,13.024-11.196,13.024-19.872c0-11.958-9.728-21.686-21.686-21.686 s-21.685,9.728-21.685,21.686c0,8.153,4.471,15.476,11.703,19.229v0.822h-4.154c-11.934,0-21.644,9.708-21.644,21.643v29.697 c0,0.452,0.365,0.817,0.817,0.817h68.604c0.452,0,0.817-0.365,0.817-0.817v-29.697C112.192,235.459,102.483,225.751,90.549,225.751z M110.558,276.273h-66.97v-28.88c0-11.033,8.976-20.009,20.01-20.009h4.971c0.452,0,0.817-0.365,0.817-0.817v-2.141 c0-0.311-0.177-0.597-0.457-0.734c-6.937-3.402-11.246-10.296-11.246-17.993c0-11.057,8.995-20.052,20.051-20.052 c11.057,0,20.052,8.995,20.052,20.052c0,8.193-4.912,15.484-12.514,18.574c-0.308,0.124-0.51,0.424-0.51,0.756v1.538 c0,0.452,0.365,0.817,0.817,0.817h4.971c11.033,0,20.009,8.976,20.009,20.009V276.273z M308.47,222.187 c-0.102-0.297-0.027-0.624,0.195-0.846c0.222-0.222,0.547-0.298,0.846-0.195l33.879,11.73c0.33,0.115,0.551,0.426,0.549,0.776 c-0.002,0.351-0.225,0.661-0.557,0.771l-16.256,5.451c-0.428,0.153-0.892-0.086-1.034-0.514c-0.065-0.195-0.045-0.394,0.028-0.57 c0.032-0.077,0.078-0.143,0.132-0.207c0.02-0.024,0.034-0.053,0.057-0.075c0.083-0.079,0.181-0.144,0.297-0.182l13.983-4.69 l-30.024-10.395l11.18,32.288c0.066,0.193,0.048,0.39-0.022,0.566c-0.053,0.135-0.14,0.251-0.258,0.342 c-0.023,0.018-0.051,0.03-0.076,0.045c-0.049,0.03-0.092,0.068-0.149,0.088c-0.089,0.03-0.179,0.045-0.268,0.045 c-0.17,0-0.335-0.054-0.471-0.151c-0.135-0.095-0.243-0.231-0.301-0.398L308.47,222.187z M359.372,282.046 c6.099,21.215-1.798,42.177-1.878,42.386c-0.124,0.324-0.434,0.523-0.763,0.523c-0.097,0-0.196-0.018-0.294-0.054 c-0.421-0.163-0.63-0.635-0.469-1.056c0.078-0.204,7.778-20.673,1.833-41.349c-5.941-20.663-19.442-30.944-19.578-31.047 c-0.362-0.27-0.436-0.782-0.166-1.143c0.27-0.361,0.782-0.437,1.143-0.166C339.341,250.245,353.272,260.828,359.372,282.046z M518.43,240.39c1.492-3.697,2.269-8.172,1.968-13.49c-1.332-23.443-20.438-38.282-25.84-42.024l4.922-1.65l4.874-1.634l4.876-1.635 c0.332-0.111,0.555-0.421,0.557-0.771c0.002-0.349-0.219-0.661-0.549-0.776l-33.879-11.73c-0.297-0.101-0.624-0.026-0.846,0.195 c-0.222,0.221-0.297,0.549-0.195,0.845l4.803,13.872l0.566,1.634l6.361,18.372c0.113,0.328,0.423,0.549,0.769,0.55 c0.002,0,0.002,0,0.003,0c0.346,0,0.656-0.219,0.771-0.545l5.548-15.72c4.355,2.926,24.29,17.564,25.628,41.109 c0.294,5.188-0.437,9.341-1.736,12.661c-1.136-0.573-2.284-1.091-3.436-1.553c-10.404-4.149-18.234-0.972-21.782,3.01 c-2.745,3.08-3.397,6.941-1.704,10.074c1.723,3.196,7.546,4.324,13.535,2.63c5.422-1.535,10.95-5.365,14.124-11.928 c12.712,6.999,23.443,20.78,21.056,33.249c-0.787,4.109-3.022,7.329-6.646,9.574c-14.451,8.949-46.39,0.169-46.709,0.08 c-0.437-0.123-0.886,0.134-1.007,0.566c-0.121,0.434,0.132,0.886,0.566,1.007c0.874,0.244,14.668,4.039,28.327,4.039 c7.249,0,14.459-1.069,19.68-4.302c4.029-2.496,6.517-6.081,7.393-10.658C542.96,262.219,531.724,247.679,518.43,240.39z M503.199,252.241c-5.189,1.463-10.307,0.661-11.654-1.833c-1.356-2.512-0.785-5.658,1.489-8.212 c2.113-2.373,5.952-4.412,11.092-4.412c2.631,0,5.606,0.535,8.863,1.835c1.138,0.453,2.271,0.965,3.391,1.534 C512.698,248.846,505.886,251.48,503.199,252.241z"
            style="fill: rgb(35, 31, 32);" />
    </g>
</svg>